<mxfile host="app.diagrams.net" modified="2022-04-23T19:18:10.103Z" agent="5.0 (Windows NT 10.0; Win64; x64) AppleWebKit/537.36 (KHTML, like Gecko) Chrome/100.0.4896.127 Safari/537.36" etag="HjDf1p0LVLlw0aE7MR-Q" version="17.4.6" type="github">
  <diagram id="Dx6Vjj8eZNqhfwqoa18i" name="Page-1">
    <mxGraphModel dx="1723" dy="1848" grid="1" gridSize="10" guides="1" tooltips="1" connect="1" arrows="1" fold="1" page="1" pageScale="1" pageWidth="850" pageHeight="1100" math="1" shadow="0">
      <root>
        <mxCell id="0" />
        <mxCell id="1" parent="0" />
        <mxCell id="YAzo5gme8WKAYbsJvMn8-1" value="&lt;span style=&quot;font-size: 40px&quot;&gt;USING&lt;br&gt;SYMBOL-STRIPPING&lt;br&gt;MODULO DICTIONARY&lt;br&gt;to make&lt;br&gt;&lt;font color=&quot;#ff0000&quot;&gt;[&lt;/font&gt;XSLT&lt;font color=&quot;#ff0000&quot;&gt;]&amp;nbsp; &amp;nbsp; [&lt;/font&gt;REGEX&lt;font color=&quot;#ff0000&quot;&gt;]&lt;/font&gt;&lt;br&gt;&lt;/span&gt;" style="text;html=1;align=center;verticalAlign=middle;resizable=0;points=[];autosize=1;strokeColor=none;fillColor=none;" vertex="1" parent="1">
          <mxGeometry x="90" y="130" width="450" height="120" as="geometry" />
        </mxCell>
        <mxCell id="YAzo5gme8WKAYbsJvMn8-2" value="$$\oplus$$" style="text;html=1;align=center;verticalAlign=middle;resizable=0;points=[];autosize=1;strokeColor=none;fillColor=none;fontSize=40;fontColor=#000000;" vertex="1" parent="1">
          <mxGeometry x="190" y="263" width="210" height="50" as="geometry" />
        </mxCell>
        <mxCell id="YAzo5gme8WKAYbsJvMn8-3" value="HAVE PRIVACY&amp;amp;&lt;br&gt;SECRECY&amp;nbsp;&lt;br&gt;by DESIGN" style="text;html=1;align=center;verticalAlign=middle;resizable=0;points=[];autosize=1;strokeColor=none;fillColor=none;fontSize=40;fontColor=#000000;" vertex="1" parent="1">
          <mxGeometry x="150" y="370" width="330" height="150" as="geometry" />
        </mxCell>
        <mxCell id="YAzo5gme8WKAYbsJvMn8-4" value="" style="shape=curlyBracket;whiteSpace=wrap;html=1;rounded=1;flipH=1;fontSize=40;fontColor=#000000;" vertex="1" parent="1">
          <mxGeometry x="470" y="370" width="20" height="150" as="geometry" />
        </mxCell>
        <mxCell id="YAzo5gme8WKAYbsJvMn8-5" value="&lt;font color=&quot;#ff0000&quot;&gt;OVER-&lt;br&gt;&amp;nbsp; &amp;nbsp; &amp;nbsp; &amp;nbsp; &amp;nbsp; &amp;nbsp; &amp;nbsp; &amp;nbsp; &amp;nbsp; &amp;nbsp; &amp;nbsp; -PRESERVATIONism&lt;br&gt;&lt;/font&gt;" style="text;html=1;align=center;verticalAlign=middle;resizable=0;points=[];autosize=1;strokeColor=none;fillColor=none;fontSize=40;fontColor=#000000;" vertex="1" parent="1">
          <mxGeometry x="500" y="60" width="640" height="100" as="geometry" />
        </mxCell>
        <mxCell id="YAzo5gme8WKAYbsJvMn8-6" value="ENTROPIC&lt;br&gt;HOARDing" style="text;html=1;align=center;verticalAlign=middle;resizable=0;points=[];autosize=1;strokeColor=none;fillColor=none;fontSize=40;fontColor=#FF0000;" vertex="1" parent="1">
          <mxGeometry x="750" y="313" width="220" height="100" as="geometry" />
        </mxCell>
        <mxCell id="YAzo5gme8WKAYbsJvMn8-7" value="&lt;font color=&quot;#000000&quot;&gt;EXCESSIVE&lt;br&gt;DURABILITY&lt;br&gt;&lt;/font&gt;" style="text;html=1;align=center;verticalAlign=middle;resizable=0;points=[];autosize=1;strokeColor=none;fillColor=none;fontSize=40;fontColor=#FF0000;" vertex="1" parent="1">
          <mxGeometry x="720" y="190" width="250" height="100" as="geometry" />
        </mxCell>
        <mxCell id="YAzo5gme8WKAYbsJvMn8-8" value="" style="endArrow=none;html=1;rounded=0;fontSize=40;fontColor=#000000;strokeColor=#FF0000;" edge="1" parent="1">
          <mxGeometry width="50" height="50" relative="1" as="geometry">
            <mxPoint x="742" y="66" as="sourcePoint" />
            <mxPoint x="882" y="66" as="targetPoint" />
          </mxGeometry>
        </mxCell>
        <mxCell id="YAzo5gme8WKAYbsJvMn8-9" value="" style="endArrow=none;html=1;rounded=0;fontSize=40;fontColor=#000000;strokeColor=#FF0000;" edge="1" parent="1">
          <mxGeometry width="50" height="50" relative="1" as="geometry">
            <mxPoint x="1070" y="153" as="sourcePoint" />
            <mxPoint x="1140" y="153" as="targetPoint" />
          </mxGeometry>
        </mxCell>
        <mxCell id="YAzo5gme8WKAYbsJvMn8-10" value="" style="endArrow=none;html=1;rounded=0;fontSize=40;fontColor=#000000;strokeColor=#FF0000;" edge="1" parent="1">
          <mxGeometry width="50" height="50" relative="1" as="geometry">
            <mxPoint x="1070" y="158" as="sourcePoint" />
            <mxPoint x="1140" y="158" as="targetPoint" />
          </mxGeometry>
        </mxCell>
        <mxCell id="YAzo5gme8WKAYbsJvMn8-11" value="" style="endArrow=none;html=1;rounded=0;fontSize=40;fontColor=#000000;strokeColor=#FF0000;" edge="1" parent="1">
          <mxGeometry width="50" height="50" relative="1" as="geometry">
            <mxPoint x="1070" y="164" as="sourcePoint" />
            <mxPoint x="1140" y="164" as="targetPoint" />
          </mxGeometry>
        </mxCell>
        <mxCell id="YAzo5gme8WKAYbsJvMn8-12" value="" style="endArrow=none;html=1;rounded=0;fontSize=40;fontColor=#000000;strokeColor=#000000;exitX=0.88;exitY=0.975;exitDx=0;exitDy=0;exitPerimeter=0;" edge="1" parent="1" source="YAzo5gme8WKAYbsJvMn8-7">
          <mxGeometry width="50" height="50" relative="1" as="geometry">
            <mxPoint x="870" y="287.5" as="sourcePoint" />
            <mxPoint x="750" y="287.5" as="targetPoint" />
          </mxGeometry>
        </mxCell>
        <mxCell id="YAzo5gme8WKAYbsJvMn8-14" value="&lt;font color=&quot;#069968&quot;&gt;on each&amp;nbsp;&lt;/font&gt;" style="text;html=1;align=center;verticalAlign=middle;resizable=0;points=[];autosize=1;strokeColor=none;fillColor=none;fontSize=40;fontColor=#000000;" vertex="1" parent="1">
          <mxGeometry x="1340" y="110" width="170" height="50" as="geometry" />
        </mxCell>
        <mxCell id="YAzo5gme8WKAYbsJvMn8-15" value="CHUNK&lt;br&gt;BLOCK&lt;br&gt;PART" style="text;html=1;align=center;verticalAlign=middle;resizable=0;points=[];autosize=1;strokeColor=none;fillColor=none;fontSize=40;fontColor=#069968;" vertex="1" parent="1">
          <mxGeometry x="1510" y="110" width="160" height="150" as="geometry" />
        </mxCell>
        <mxCell id="YAzo5gme8WKAYbsJvMn8-16" value="of an ARTEFACT::&lt;br&gt;\SOLAR-PERIOD::" style="text;html=1;align=center;verticalAlign=middle;resizable=0;points=[];autosize=1;strokeColor=none;fillColor=none;fontSize=40;fontColor=#069968;" vertex="1" parent="1">
          <mxGeometry x="1340" y="260" width="350" height="100" as="geometry" />
        </mxCell>
        <mxCell id="YAzo5gme8WKAYbsJvMn8-17" value="&lt;font color=&quot;#000000&quot;&gt;INTEGRITY VERIFICATION&lt;br&gt;(near;far;)&lt;br&gt;&lt;/font&gt;" style="text;html=1;align=center;verticalAlign=middle;resizable=0;points=[];autosize=1;strokeColor=none;fillColor=none;fontSize=40;fontColor=#069968;" vertex="1" parent="1">
          <mxGeometry x="1320" y="450" width="520" height="100" as="geometry" />
        </mxCell>
        <mxCell id="YAzo5gme8WKAYbsJvMn8-18" value="RE-COMPRESSION" style="text;html=1;align=center;verticalAlign=middle;resizable=0;points=[];autosize=1;strokeColor=none;fillColor=none;fontSize=40;fontColor=#000000;" vertex="1" parent="1">
          <mxGeometry x="1325" y="570" width="380" height="50" as="geometry" />
        </mxCell>
        <mxCell id="YAzo5gme8WKAYbsJvMn8-19" value="RE-COMPACTION" style="text;html=1;align=center;verticalAlign=middle;resizable=0;points=[];autosize=1;strokeColor=none;fillColor=none;fontSize=40;fontColor=#000000;" vertex="1" parent="1">
          <mxGeometry x="1325" y="720" width="350" height="50" as="geometry" />
        </mxCell>
        <mxCell id="YAzo5gme8WKAYbsJvMn8-20" value="&lt;font style=&quot;font-size: 30px&quot;&gt;$$\Delta METHOD$$&lt;/font&gt;" style="text;html=1;align=center;verticalAlign=middle;resizable=0;points=[];autosize=1;strokeColor=none;fillColor=none;fontSize=40;fontColor=#000000;" vertex="1" parent="1">
          <mxGeometry x="1345" y="620" width="300" height="60" as="geometry" />
        </mxCell>
        <mxCell id="YAzo5gme8WKAYbsJvMn8-21" value="$$\Delta DICTIONARY$$" style="text;html=1;align=center;verticalAlign=middle;resizable=0;points=[];autosize=1;strokeColor=none;fillColor=none;fontSize=30;fontColor=#000000;" vertex="1" parent="1">
          <mxGeometry x="1360" y="670" width="350" height="40" as="geometry" />
        </mxCell>
        <mxCell id="YAzo5gme8WKAYbsJvMn8-22" value="" style="endArrow=classic;html=1;rounded=0;fontSize=30;fontColor=#000000;strokeColor=#000000;" edge="1" parent="1">
          <mxGeometry width="50" height="50" relative="1" as="geometry">
            <mxPoint x="1275" y="594.5" as="sourcePoint" />
            <mxPoint x="1325" y="594.5" as="targetPoint" />
          </mxGeometry>
        </mxCell>
        <mxCell id="YAzo5gme8WKAYbsJvMn8-23" value="" style="endArrow=classic;html=1;rounded=0;fontSize=30;fontColor=#000000;strokeColor=#000000;" edge="1" parent="1">
          <mxGeometry width="50" height="50" relative="1" as="geometry">
            <mxPoint x="1280" y="480" as="sourcePoint" />
            <mxPoint x="1330" y="480" as="targetPoint" />
          </mxGeometry>
        </mxCell>
        <mxCell id="YAzo5gme8WKAYbsJvMn8-25" value="" style="endArrow=classic;html=1;rounded=0;fontSize=30;fontColor=#000000;strokeColor=#000000;" edge="1" parent="1">
          <mxGeometry width="50" height="50" relative="1" as="geometry">
            <mxPoint x="1340" y="610" as="sourcePoint" />
            <mxPoint x="1390" y="650" as="targetPoint" />
            <Array as="points">
              <mxPoint x="1340" y="650" />
            </Array>
          </mxGeometry>
        </mxCell>
        <mxCell id="YAzo5gme8WKAYbsJvMn8-26" value="" style="endArrow=classic;html=1;rounded=0;fontSize=30;fontColor=#000000;strokeColor=#000000;" edge="1" parent="1">
          <mxGeometry width="50" height="50" relative="1" as="geometry">
            <mxPoint x="1340" y="650" as="sourcePoint" />
            <mxPoint x="1390" y="690" as="targetPoint" />
            <Array as="points">
              <mxPoint x="1340" y="690" />
            </Array>
          </mxGeometry>
        </mxCell>
      </root>
    </mxGraphModel>
  </diagram>
</mxfile>
